<?xml version="1.0" encoding="utf-8"?>
<svg viewBox="0 0 1600 840" xmlns="http://www.w3.org/2000/svg" xmlns:bx="https://boxy-svg.com">
  <defs>
    <bx:grid x="0" y="0" width="40" height="40"/>
    <radialGradient gradientUnits="userSpaceOnUse" cx="14.859" cy="11.684" r="10" id="gradient-1" gradientTransform="matrix(2.250517, -5.281689, 6.880567, 2.931776, -133.191632, 64.681146)">
      <stop offset="0" style="stop-color: rgba(255, 208, 0, 1)"/>
      <stop offset="1" style="stop-color: rgb(197, 162, 5);"/>
    </radialGradient>
    <filter id="drop-shadow-filter-0" color-interpolation-filters="sRGB" x="-500%" y="-500%" width="1000%" height="1000%" bx:preset="drop-shadow 1 1 2 1 0.5 rgba(0,0,0,0.43)">
      <feGaussianBlur in="SourceAlpha" stdDeviation="1"/>
      <feOffset dx="1" dy="2"/>
      <feComponentTransfer result="offsetblur">
        <feFuncA id="spread-ctrl" type="linear" slope="1"/>
      </feComponentTransfer>
      <feFlood flood-color="rgba(0,0,0,0.43)"/>
      <feComposite in2="offsetblur" operator="in"/>
      <feMerge>
        <feMergeNode/>
        <feMergeNode in="SourceGraphic"/>
      </feMerge>
    </filter>
    <filter id="drop-shadow-filter-1" color-interpolation-filters="sRGB" x="-500%" y="-500%" width="1000%" height="1000%" bx:preset="drop-shadow 1 10 10 0 0.5 rgba(0,0,0,0.3)">
      <feGaussianBlur in="SourceAlpha" stdDeviation="0"/>
      <feOffset dx="10" dy="10"/>
      <feComponentTransfer result="offsetblur">
        <feFuncA id="spread-ctrl" type="linear" slope="1"/>
      </feComponentTransfer>
      <feFlood flood-color="rgba(0,0,0,0.3)"/>
      <feComposite in2="offsetblur" operator="in"/>
      <feMerge>
        <feMergeNode/>
        <feMergeNode in="SourceGraphic"/>
      </feMerge>
    </filter>
  </defs>
  <g>
    <title>bg</title>
    <path d="M 1600 0 L 1600 843.274 C 1600 843.274 1120.03 840.022 1120 840.001 L 0 840.001 L 0 0" style="stroke-width: 0px; fill: rgb(242, 160, 242);"/>
    <path d="M 1600 0 L 1600 520 C 1600 520 1520 520 1440 680 C 1360 880 1120.03 840.021 1120 840 L 0 840 L 0 0" style="stroke-width: 0px; fill: rgb(215, 141, 235);"/>
    <path d="M 1600 0 L 1600 440 C 1600 440 1560 440 1440 480 C 1320 520 1360 600 1240 680 C 1150.588 739.608 960.022 840.015 960 840 L 0 840 L 0 0" style="stroke-width: 0px; fill: rgb(182, 122, 228);"/>
    <path d="M 1600 0 L 1600 320 C 1600 320 1440 320 1360 400 C 1233.509 526.491 1240 600 1000 640 C 894.002 657.666 760.022 840.015 760 840 L 0 840 L 0 0" style="stroke-width: 0px; fill: rgb(145, 105, 220);"/>
    <path d="M 1600 0 L 1600 80 C 1600 80 1320 200 1240 280 C 1113.509 406.491 1160 520 880 560 C 600 600 480.022 840.015 480 840 L 0 840 L 0 0" style="stroke-width: 0px; fill: rgb(105, 89, 213);"/>
    <path d="M 1400 0 C 1400 0 1240 240 1080 280 C 906.456 323.386 1000 440 720 480 C 604.806 496.456 460.818 515.492 400 680 C 335.809 853.631 200.013 840.009 200 840 L 0 840 L 0 0" style="stroke-width: 0px; fill: rgb(72, 83, 205);"/>
    <path d="M 1160 0 C 1160 0 1113.57 111.318 941.436 160 C 800 200 840 280 680 360 C 569.362 415.319 394.278 334.305 320 520 C 240 720 0.013 778.749 0 778.74 L 0 0" style="stroke-width: 0px; fill: rgb(58, 100, 198);"/>
    <path d="M 880 0 C 880 0 692.134 191.318 520 240 C 378.564 280 240 280 200 480 C 175.741 601.295 0.013 600.009 0 600 L 0 0" style="stroke-width: 0px; fill: rgb(44, 120, 191);"/>
    <path d="M 680 0 C 680 0 560 120 320 160 C 261.22 169.797 230.726 271.251 179.403 320 C 92.925 402.142 0.008 440.006 0 440 L 0 -0.001" style="stroke-width: 0px; fill: rgb(32, 143, 183);"/>
    <path d="M 360 -0.001 C 360 -0.001 360 80 120 120 C -24.983 144.164 0.013 200.009 0 200 L 0 -0.001" style="stroke-width: 0px; fill: rgb(20, 167, 175);"/>
  </g>
  <g transform="matrix(25, 0, 0, 24.999376, 370.000031, 89.992142)" style="">
    <g/>
  </g>
  <g transform="matrix(25, 0, 0, 24.999376, 889.999939, 160)" style="">
    <g/>
  </g>
  <g transform="matrix(6.557377, 0, 0, 6.557242, 1022.950806, 350.74527)" style="filter: url(#drop-shadow-filter-0);">
    <path d="M -38.88 -16.889 C -33.49 -16.889 -29.12 -12.519 -29.12 -7.129 L -29.12 -2.249 L -24.85 -2.249 C -21.817 -2.249 -19.36 0.208 -19.36 3.241 L -19.36 5.071 C -20.136 5.071 -20.914 5.339 -21.546 5.873 L -21.807 6.117 C -22.207 6.535 -22.61 6.905 -23.018 7.232 L -23.02 3.241 C -23.02 2.23 -23.84 1.411 -24.85 1.411 L -52.91 1.411 C -53.92 1.411 -54.74 2.23 -54.74 3.241 L -54.74 26.42 C -54.74 27.43 -53.92 28.25 -52.91 28.25 L -28.783 28.252 C -27.788 29.658 -26.531 30.883 -25.026 31.912 L -52.91 31.91 C -55.943 31.91 -58.4 29.453 -58.4 26.42 L -58.4 3.241 C -58.4 0.208 -55.943 -2.249 -52.91 -2.249 L -48.64 -2.249 L -48.64 -7.129 C -48.64 -12.519 -44.27 -16.889 -38.88 -16.889 Z M -18.667 7.808 C -16.247 10.336 -13.565 11.578 -10.576 11.578 C -10.105 11.578 -9.71 11.927 -9.62 12.388 L -9.6 12.593 L -9.6 18.695 C -9.6 25.239 -12.804 29.69 -19.05 31.859 C -19.253 31.927 -19.467 31.927 -19.667 31.859 C -25.709 29.76 -28.903 25.534 -29.11 19.344 L -29.12 18.695 L -29.12 12.593 C -29.12 12.032 -28.683 11.578 -28.144 11.578 C -25.16 11.578 -22.476 10.336 -20.048 7.808 C -19.667 7.41 -19.048 7.41 -18.667 7.808 Z M -38.88 -13.229 C -42.25 -13.229 -44.98 -10.499 -44.98 -7.129 L -44.98 -2.249 L -32.78 -2.249 L -32.78 -7.129 C -32.78 -10.499 -35.51 -13.229 -38.88 -13.229 Z" style="stroke: rgb(186, 218, 85); paint-order: stroke; stroke-width: 0px; fill: url(#gradient-1);"/>
    <path d="M -40.841 13.151 L -47.912 20.222 L -49.326 18.808 L -43.669 13.151 L -49.326 7.494 L -47.912 6.081 L -40.841 13.151 Z M -40.841 20.151 L -30.841 20.151 L -30.841 22.151 L -40.841 22.151 L -40.841 20.151 Z" style="stroke-linecap: round; stroke-linejoin: round; stroke-width: 0.3904px; fill: rgb(30, 30, 30); stroke: rgb(30, 30, 30);"/>
  </g>
  <rect x="40" y="760" width="320" height="40.001" style="stroke-width: 8px; stroke-linejoin: round; stroke-linecap: round; stroke: rgb(236, 236, 236); fill: rgb(236, 236, 236); filter: url(#drop-shadow-filter-1);"/>
  <text style="white-space: pre; fill: rgb(51, 51, 51); font-family: Arial, sans-serif; font-size: 22px;" x="96.158" y="780.177" transform="matrix(1.582453, 0, 0, 1.611945, -51.923035, -464.746338)">@DismissedGuy</text>
  <path d="M 53.379 792.208 C 53.379 792.373 53.194 792.506 52.96 792.506 C 52.694 792.531 52.508 792.398 52.508 792.208 C 52.508 792.043 52.694 791.91 52.927 791.91 C 53.169 791.886 53.379 792.018 53.379 792.208 Z M 50.871 791.836 C 50.815 792.001 50.976 792.192 51.218 792.241 C 51.427 792.324 51.669 792.241 51.718 792.076 C 51.766 791.91 51.613 791.72 51.371 791.646 C 51.161 791.588 50.927 791.67 50.871 791.836 Z M 54.435 791.695 C 54.202 791.753 54.04 791.91 54.065 792.101 C 54.089 792.266 54.298 792.373 54.54 792.316 C 54.774 792.258 54.935 792.101 54.911 791.935 C 54.887 791.778 54.669 791.67 54.435 791.695 Z M 59.742 760 C 48.556 760 40 768.71 40 780.182 C 40 789.354 45.629 797.204 53.669 799.967 C 54.702 800.157 55.065 799.503 55.065 798.966 C 55.065 798.453 55.04 795.624 55.04 793.887 C 55.04 793.887 49.395 795.128 48.21 791.422 C 48.21 791.422 47.29 789.015 45.968 788.395 C 45.968 788.395 44.121 787.096 46.097 787.121 C 46.097 787.121 48.105 787.287 49.21 789.255 C 50.976 792.448 53.935 791.53 55.089 790.984 C 55.274 789.66 55.798 788.743 56.379 788.196 C 51.871 787.684 47.323 787.014 47.323 779.057 C 47.323 776.782 47.935 775.641 49.226 774.185 C 49.016 773.647 48.331 771.431 49.435 768.569 C 51.121 768.031 55 770.802 55 770.802 C 56.613 770.339 58.347 770.099 60.065 770.099 C 61.782 770.099 63.516 770.339 65.129 770.802 C 65.129 770.802 69.008 768.023 70.694 768.569 C 71.798 771.439 71.113 773.647 70.903 774.185 C 72.194 775.649 72.984 776.791 72.984 779.057 C 72.984 787.039 68.234 787.675 63.726 788.196 C 64.468 788.85 65.097 790.091 65.097 792.034 C 65.097 794.822 65.073 798.271 65.073 798.949 C 65.073 799.487 65.444 800.14 66.468 799.95 C 74.532 797.204 80 789.354 80 780.182 C 80 768.71 70.927 760 59.742 760 Z M 47.839 788.527 C 47.734 788.61 47.758 788.8 47.895 788.958 C 48.024 789.09 48.21 789.148 48.315 789.04 C 48.419 788.958 48.395 788.767 48.258 788.61 C 48.129 788.478 47.944 788.42 47.839 788.527 Z M 46.968 787.857 C 46.911 787.965 46.992 788.097 47.153 788.18 C 47.282 788.263 47.444 788.238 47.5 788.122 C 47.556 788.015 47.476 787.882 47.315 787.799 C 47.153 787.75 47.024 787.775 46.968 787.857 Z M 49.581 790.802 C 49.452 790.909 49.5 791.158 49.685 791.315 C 49.871 791.505 50.105 791.53 50.21 791.397 C 50.315 791.29 50.266 791.042 50.105 790.885 C 49.927 790.694 49.685 790.669 49.581 790.802 Z M 48.661 789.586 C 48.532 789.669 48.532 789.884 48.661 790.074 C 48.79 790.264 49.008 790.347 49.113 790.264 C 49.242 790.157 49.242 789.942 49.113 789.752 C 49 789.561 48.79 789.479 48.661 789.586 Z" style="fill: rgb(51, 51, 51);"/>
</svg>